<?xml version="1.0" standalone="no"?>
<!DOCTYPE svg PUBLIC "-//W3C//DTD SVG 20010904//EN"
 "http://www.w3.org/TR/2001/REC-SVG-20010904/DTD/svg10.dtd">
<svg version="1.0" xmlns="http://www.w3.org/2000/svg"
 width="233.000000pt" height="233.000000pt" viewBox="0 0 233.000000 233.000000"
 preserveAspectRatio="xMidYMid meet">
<metadata>
Created by potrace 1.10, written by Peter Selinger 2001-2011
</metadata>
<g transform="translate(0.000000,233.000000) scale(0.100000,-0.100000)"
fill="#000000" stroke="none">
<path d="M970 2049 c0 -170 3 -258 10 -254 13 8 13 515 -1 515 -5 0 -9 -103
-9 -261z"/>
<path d="M1347 2203 c1 -60 3 -141 3 -182 0 -41 2 -72 5 -70 10 10 10 359 0
359 -6 0 -9 -41 -8 -107z"/>
<path d="M1720 1640 c0 -304 2 -551 5 -549 7 8 9 1088 2 1096 -4 3 -7 -243 -7
-547z"/>
<path d="M476 2101 c-16 -18 -15 -18 23 -8 22 6 38 14 35 19 -9 14 -40 9 -58
-11z"/>
<path d="M1792 2111 c-9 -5 -2 -10 24 -14 20 -4 56 -20 78 -37 34 -26 32 -23
-9 14 -50 46 -68 53 -93 37z"/>
<path d="M604 1920 c0 -91 2 -128 3 -82 2 45 2 119 0 165 -1 45 -3 8 -3 -83z"/>
<path d="M1128 1929 c-62 -53 -66 -91 -13 -138 20 -17 42 -31 50 -31 24 0 82
42 99 71 9 15 32 41 51 58 19 17 35 33 35 35 0 3 -15 5 -33 4 -18 -1 -54 9
-81 20 -27 12 -51 22 -55 22 -3 0 -27 -18 -53 -41z m19 -35 c-20 -20 -37 -43
-37 -50 0 -8 -4 -14 -10 -14 -5 0 -10 7 -10 16 0 20 78 100 87 90 4 -4 -10
-23 -30 -42z m114 4 c10 -16 -47 -87 -77 -94 -61 -15 -73 31 -21 84 26 28 37
32 62 28 16 -4 32 -12 36 -18z"/>
<path d="M260 1894 c-36 -39 -41 -50 -36 -76 3 -17 7 -38 7 -47 1 -9 5 10 9
42 6 47 14 65 41 93 18 19 30 34 27 34 -3 0 -25 -21 -48 -46z"/>
<path d="M1353 1820 c0 -36 2 -50 4 -32 2 17 2 47 0 65 -2 17 -4 3 -4 -33z"/>
<path d="M2091 1828 c4 -24 9 -47 10 -53 1 -5 4 4 8 20 7 29 -5 75 -19 75 -4
0 -4 -19 1 -42z"/>
<path d="M1017 1775 c-51 -37 -167 -168 -167 -190 0 -15 138 57 152 79 5 7 8
6 8 -4 0 -16 18 10 46 70 9 19 19 30 21 23 2 -6 -3 -25 -12 -42 -8 -17 -13
-31 -11 -31 3 0 12 13 20 29 13 24 14 46 7 94 -2 12 -14 7 -64 -28z m17 -46
c-12 -24 -18 -29 -27 -19 -9 9 -6 16 12 31 32 26 34 24 15 -12z m-44 -28 c0
-8 -45 -46 -79 -66 -8 -5 0 10 19 33 31 39 60 55 60 33z"/>
<path d="M149 1733 c-16 -19 -9 -21 30 -8 34 12 34 12 8 17 -16 3 -31 0 -38
-9z"/>
<path d="M228 1743 c-2 -5 -1 -60 2 -123 l6 -115 4 118 c4 103 0 147 -12 120z"/>
<path d="M1350 1747 c-1 -4 -1 -95 -1 -202 0 -243 0 -229 7 -223 7 8 7 419 -1
426 -3 3 -5 2 -5 -1z"/>
<path d="M2146 1740 c-17 -6 -16 -8 12 -18 32 -11 43 -3 20 16 -7 5 -22 6 -32
2z"/>
<path d="M348 1733 c46 -2 118 -2 160 0 42 1 5 3 -83 3 -88 0 -123 -2 -77 -3z"/>
<path d="M702 1733 c37 -2 100 -2 140 0 40 1 10 3 -67 3 -77 0 -110 -1 -73 -3z"/>
<path d="M1468 1733 c46 -2 118 -2 160 0 42 1 5 3 -83 3 -88 0 -123 -2 -77 -3z"/>
<path d="M1838 1733 c46 -2 118 -2 160 0 42 1 5 3 -83 3 -88 0 -123 -2 -77 -3z"/>
<path d="M603 1635 c0 -38 2 -53 4 -32 2 20 2 52 0 70 -2 17 -4 1 -4 -38z"/>
<path d="M2104 1545 c0 -82 2 -115 3 -72 2 43 2 110 0 150 -1 40 -3 5 -3 -78z"/>
<path d="M970 1560 c0 -16 5 -30 10 -30 6 0 10 14 10 30 0 17 -4 30 -10 30 -5
0 -10 -13 -10 -30z"/>
<path d="M540 1498 c-167 -53 -229 -58 -265 -21 -19 18 -31 10 -40 -27 l-6
-25 232 3 c151 2 236 -1 243 -8 13 -13 63 -13 71 0 4 6 95 10 240 10 l233 0
-11 35 -10 35 -25 -22 c-35 -34 -111 -29 -251 16 -63 20 -125 36 -139 36 -14
0 -36 -13 -53 -31 -16 -17 -29 -26 -29 -20 0 19 -44 51 -69 50 -14 0 -69 -14
-121 -31z m140 -18 c0 -5 5 -9 11 -7 6 1 13 -3 16 -9 5 -13 -75 -13 -96 1 -9
5 -12 4 -8 -2 4 -6 -18 -10 -56 -11 -52 0 -58 1 -37 10 62 26 170 38 170 18z
m249 -4 c29 -8 55 -17 58 -20 5 -4 -195 -1 -217 4 -3 0 4 7 14 15 25 19 76 19
145 1z"/>
<path d="M484 1403 c146 -3 193 -7 209 -18 27 -19 68 -19 93 0 15 11 58 14
203 14 101 0 186 3 190 6 7 8 -384 -1 -435 -10 -27 -4 -44 -3 -48 4 -5 8 -70
10 -204 9 l-197 -3 189 -2z"/>
<path d="M228 1374 c-3 -5 -2 -29 1 -54 l7 -45 5 43 c4 41 -3 73 -13 56z"/>
<path d="M970 1261 c0 -65 4 -112 10 -116 7 -4 10 32 9 109 0 64 -5 116 -10
116 -5 0 -9 -49 -9 -109z"/>
<path d="M2104 1240 c0 -52 1 -74 3 -47 2 26 2 68 0 95 -2 26 -3 4 -3 -48z"/>
<path d="M596 1282 c-12 -20 -96 -247 -96 -260 0 -30 26 -2 44 46 18 51 19 52
60 52 l42 0 18 -55 c16 -51 28 -66 40 -47 4 7 -85 256 -97 268 -3 3 -8 1 -11
-4z m24 -88 c15 -37 13 -44 -13 -44 -33 0 -37 7 -24 41 14 36 25 37 37 3z"/>
<path d="M1057 1284 c-4 -4 -7 -67 -7 -141 0 -112 2 -133 15 -133 11 0 15 13
15 54 0 33 5 58 14 65 13 11 17 6 113 -118 2 -3 9 1 15 7 9 9 -1 26 -40 71
-29 33 -52 63 -52 67 0 4 23 28 50 54 28 26 50 52 50 58 0 28 -32 8 -85 -53
-32 -36 -61 -65 -64 -65 -4 0 -5 27 -3 61 4 56 -5 88 -21 73z"/>
<path d="M1334 1279 c-7 -12 -8 -259 0 -266 3 -3 10 -2 16 2 8 5 11 26 8 61
l-5 54 70 0 69 0 -4 -57 c-2 -37 1 -57 9 -60 14 -5 24 251 11 271 -15 22 -26
-17 -21 -71 l6 -54 -69 3 -69 3 3 56 c4 54 -8 83 -24 58z"/>
<path d="M1626 1283 c-3 -3 -6 -52 -6 -107 0 -107 9 -130 57 -155 37 -19 64
-12 99 23 l35 35 -3 103 c-4 135 -21 135 -28 0 -5 -94 -7 -106 -29 -123 -31
-25 -53 -24 -79 4 -19 21 -22 34 -22 120 0 88 -7 117 -24 100z"/>
<path d="M262 1268 c3 -7 23 -14 46 -16 l42 -3 0 -120 c0 -101 2 -119 16 -119
13 0 15 17 12 120 l-3 119 45 3 c86 6 46 23 -58 26 -81 2 -103 0 -100 -10z"/>
<path d="M830 1260 c-39 -39 -19 -95 41 -115 45 -15 61 -55 34 -85 -21 -24
-44 -25 -71 -5 -25 19 -34 19 -34 0 0 -9 16 -23 36 -32 32 -16 38 -16 62 -2
71 40 64 116 -15 150 -39 17 -44 22 -41 46 3 26 6 28 51 26 51 -1 56 3 30 23
-26 20 -70 17 -93 -6z"/>
<path d="M1915 1268 c-3 -7 -4 -67 -2 -133 l2 -120 46 -3 c86 -6 138 69 90
129 -14 17 -17 33 -13 61 7 53 -17 78 -75 78 -26 0 -46 -5 -48 -12z m94 -36
c14 -26 -13 -62 -45 -62 -21 0 -24 4 -24 40 0 38 2 40 30 40 18 0 33 -7 39
-18z m19 -104 c33 -33 -4 -88 -60 -88 -27 0 -28 2 -28 50 l0 50 38 0 c21 0 43
-5 50 -12z"/>
<path d="M234 1130 c0 -69 1 -97 3 -62 2 34 2 90 0 125 -2 34 -3 6 -3 -63z"/>
<path d="M20 985 c0 -6 36 -8 97 -6 100 5 92 8 -30 13 -40 2 -67 -1 -67 -7z"/>
<path d="M226 736 l1 -264 73 -81 c40 -45 75 -81 78 -81 2 0 -26 35 -64 77
l-69 77 -2 265 c-2 146 -6 267 -10 268 -5 2 -8 -116 -7 -261z"/>
<path d="M970 510 c0 -316 4 -490 10 -490 6 0 10 169 9 475 0 261 2 479 5 484
6 9 -3 21 -16 21 -4 0 -8 -220 -8 -490z"/>
<path d="M2065 990 l-30 -8 28 -2 c15 -2 32 -3 37 -4 12 -1 15 18 3 20 -4 1
-21 -2 -38 -6z"/>
<path d="M2215 990 l-90 -5 93 -5 c52 -3 96 -2 98 2 8 12 -9 13 -101 8z"/>
<path d="M408 983 c17 -2 47 -2 65 0 17 2 3 4 -33 4 -36 0 -50 -2 -32 -4z"/>
<path d="M738 983 c18 -2 45 -2 60 0 15 2 0 4 -33 4 -33 0 -45 -2 -27 -4z"/>
<path d="M1108 983 c18 -2 45 -2 60 0 15 2 0 4 -33 4 -33 0 -45 -2 -27 -4z"/>
<path d="M1408 983 c18 -2 45 -2 60 0 15 2 0 4 -33 4 -33 0 -45 -2 -27 -4z"/>
<path d="M1543 983 c20 -2 54 -2 75 0 20 2 3 4 -38 4 -41 0 -58 -2 -37 -4z"/>
<path d="M1720 928 c0 -34 2 -59 5 -57 8 9 11 119 3 119 -5 0 -8 -28 -8 -62z"/>
<path d="M1803 983 c20 -2 54 -2 75 0 20 2 3 4 -38 4 -41 0 -58 -2 -37 -4z"/>
<path d="M2104 795 c0 -82 2 -115 3 -72 2 43 2 110 0 150 -1 40 -3 5 -3 -78z"/>
<path d="M316 841 c-20 -22 -14 -56 12 -66 11 -4 23 1 35 16 15 19 16 25 4 42
-19 29 -31 31 -51 8z m44 -26 c0 -8 -9 -15 -20 -15 -11 0 -20 7 -20 15 0 8 9
15 20 15 11 0 20 -7 20 -15z"/>
<path d="M484 846 c-31 -23 4 -91 37 -70 12 7 11 44 -1 44 -5 0 -10 -7 -10
-16 0 -13 -3 -14 -15 -4 -18 15 -11 30 16 30 10 0 19 4 19 9 0 16 -28 20 -46
7z"/>
<path d="M720 815 c0 -28 4 -44 10 -40 6 3 10 21 10 40 0 19 -4 37 -10 40 -6
4 -10 -12 -10 -40z"/>
<path d="M775 850 c-8 -13 20 -24 41 -16 20 8 9 26 -16 26 -10 0 -22 -5 -25
-10z"/>
<path d="M867 852 c-14 -3 -17 -12 -15 -40 2 -30 8 -38 26 -40 12 -2 22 1 22
7 0 6 -7 11 -16 11 -14 0 -14 3 -4 15 10 12 10 15 -1 15 -8 0 -6 5 6 13 20 15
10 26 -18 19z"/>
<path d="M1033 847 c-3 -6 -2 -12 4 -14 5 -2 8 -15 5 -28 -2 -15 0 -25 7 -25
6 0 11 10 11 23 0 13 5 28 12 35 7 7 10 12 8 13 -3 0 -13 2 -22 4 -10 2 -21
-2 -25 -8z"/>
<path d="M1117 854 c-4 -4 -7 -23 -6 -43 0 -20 3 -30 6 -23 4 9 9 10 18 2 10
-8 12 -4 11 19 -1 32 -18 56 -29 45z"/>
<path d="M1272 848 c-25 -25 -8 -78 25 -78 7 0 13 7 13 15 0 8 -9 15 -20 15
-26 0 -26 20 0 27 12 3 19 10 17 16 -5 16 -21 19 -35 5z"/>
<path d="M1616 845 c-9 -9 -16 -21 -16 -26 0 -20 21 -49 35 -49 24 0 17 27 -7
34 -25 6 -16 22 16 28 17 3 17 4 4 16 -13 10 -19 10 -32 -3z"/>
<path d="M1720 841 c0 -26 -17 -28 -23 -3 -3 9 -5 -1 -5 -23 0 -22 2 -34 5
-27 7 17 23 15 23 -3 0 -8 5 -15 10 -15 6 0 10 18 10 39 0 22 -4 43 -10 46 -5
3 -10 -3 -10 -14z"/>
<path d="M1770 815 c0 -27 3 -45 7 -42 3 4 6 23 6 42 0 19 -3 38 -6 42 -4 3
-7 -15 -7 -42z"/>
<path d="M1824 846 c-10 -27 1 -71 19 -74 9 -2 17 1 17 7 0 6 -8 11 -17 11
-15 0 -16 2 -3 10 13 9 13 11 0 20 -13 8 -12 10 3 10 9 0 17 7 17 15 0 19 -29
20 -36 1z"/>
<path d="M1987 854 c-4 -4 -7 -25 -7 -46 0 -31 3 -38 20 -38 11 0 20 5 20 10
0 6 -7 10 -16 10 -13 0 -14 3 -5 14 9 11 9 15 -1 19 -8 3 -6 6 5 6 10 1 17 6
15 13 -5 14 -22 21 -31 12z"/>
<path d="M400 813 c0 -30 3 -35 11 -23 8 11 12 12 16 3 10 -26 19 -12 15 22
-3 26 -9 35 -23 35 -15 0 -19 -7 -19 -37z"/>
<path d="M561 818 c-12 -33 -6 -52 9 -28 8 13 12 12 24 -5 19 -24 20 -13 4 32
-15 41 -23 42 -37 1z"/>
<path d="M630 815 c0 -19 5 -35 11 -35 6 0 8 9 4 23 l-6 22 20 -22 c26 -31 31
-29 31 12 0 19 -4 35 -10 35 -5 0 -10 -8 -10 -17 -1 -17 -1 -17 -11 0 -16 28
-29 20 -29 -18z"/>
<path d="M1190 820 c-7 -17 -10 -33 -6 -37 3 -3 6 -1 6 5 0 16 27 15 33 0 2
-7 3 0 1 17 -6 44 -19 50 -34 15z"/>
<path d="M1340 816 c0 -35 20 -63 20 -29 1 17 2 17 15 -1 13 -17 15 -17 15 -4
0 9 -5 20 -11 24 -8 4 -8 9 0 17 17 17 13 31 -4 17 -10 -9 -15 -9 -15 -1 0 6
-4 11 -10 11 -5 0 -10 -15 -10 -34z"/>
<path d="M1532 825 c-7 -14 -12 -33 -12 -42 0 -14 2 -14 15 3 13 16 16 17 26
4 8 -12 9 -8 4 15 -9 43 -20 49 -33 20z"/>
<path d="M1895 833 c4 -10 10 -26 12 -35 3 -10 9 -18 13 -18 4 0 10 8 13 18 2
9 8 25 12 35 4 10 3 17 -4 17 -6 0 -11 -7 -11 -15 0 -8 -4 -15 -10 -15 -5 0
-10 7 -10 15 0 8 -5 15 -11 15 -7 0 -8 -7 -4 -17z"/>
<path d="M782 800 c-10 -17 -10 -21 3 -26 20 -8 48 3 40 16 -4 6 -10 8 -15 5
-5 -3 -10 2 -12 10 -2 13 -6 12 -16 -5z"/>
<path d="M1350 689 c0 -41 -2 -208 -3 -371 -1 -194 2 -298 8 -298 10 0 10 728
0 738 -3 3 -5 -28 -5 -69z"/>
<path d="M1720 450 c0 -172 3 -310 7 -306 8 7 6 607 -2 614 -3 3 -5 -136 -5
-308z"/>
<path d="M603 695 c0 -33 2 -45 4 -27 2 18 2 45 0 60 -2 15 -4 0 -4 -33z"/>
<path d="M604 425 c0 -88 2 -123 3 -77 2 46 2 118 0 160 -1 42 -3 5 -3 -83z"/>
<path d="M2097 521 c-5 -29 -6 -55 -4 -57 10 -10 22 45 17 76 -6 34 -6 33 -13
-19z"/>
<path d="M2040 414 c-14 -19 -57 -63 -96 -98 -56 -49 -82 -65 -115 -71 -44 -7
-44 -7 -15 -16 33 -9 30 -11 123 70 64 56 150 151 136 151 -4 0 -19 -16 -33
-36z"/>
<path d="M449 252 c19 -18 41 -30 49 -27 7 3 28 5 45 6 22 1 12 5 -30 13 -35
7 -71 19 -81 27 -10 8 -2 -1 17 -19z"/>
<path d="M597 180 c-3 -14 -2 -29 3 -34 16 -16 23 1 13 31 l-9 27 -7 -24z"/>
</g>
</svg>
